<svg aria-hidden="true" style="position: absolute; width: 0; height: 0; overflow: hidden;" version="1.1" xmlns="http://www.w3.org/2000/svg" xmlns:xlink="http://www.w3.org/1999/xlink">
<defs>
<symbol id="icon-network" viewBox="0 0 20 20">
<title>network</title>
<path d="M10 20c-5.523 0-10-4.477-10-10s4.477-10 10-10v0c5.523 0 10 4.477 10 10s-4.477 10-10 10v0zM17.75 12c0.161-0.6 0.254-1.289 0.254-2s-0.093-1.4-0.266-2.056l0.013 0.056h-3.82c0.044 0.598 0.070 1.296 0.070 2s-0.025 1.402-0.075 2.093l0.005-0.093h3.82zM16.93 14h-3.22c-0.186 1.31-0.518 2.493-0.985 3.605l0.035-0.095c1.782-0.67 3.226-1.9 4.15-3.472l0.020-0.038zM8.080 12h3.84c0.052-0.599 0.081-1.296 0.081-2s-0.030-1.401-0.088-2.090l0.006 0.090h-3.84c-0.052 0.599-0.081 1.296-0.081 2s0.030 1.401 0.088 2.090l-0.006-0.090zM8.33 14c0.41 2.4 1.13 4 1.67 4s1.26-1.6 1.67-4h-3.34zM2.25 12h3.82c-0.044-0.598-0.070-1.296-0.070-2s0.025-1.402 0.075-2.093l-0.005 0.093h-3.82c-0.161 0.6-0.254 1.289-0.254 2s0.093 1.4 0.266 2.056l-0.013-0.056zM3.070 14c0.944 1.61 2.388 2.84 4.115 3.492l0.055 0.018c-0.42-0.96-0.74-2.16-0.95-3.51h-3.22zM16.93 6c-0.944-1.61-2.388-2.84-4.115-3.492l-0.055-0.018c0.42 0.96 0.74 2.16 0.95 3.51h3.22zM8.33 6h3.34c-0.41-2.4-1.13-4-1.67-4s-1.26 1.6-1.67 4zM3.070 6h3.22c0.2-1.35 0.53-2.55 0.95-3.51-1.782 0.67-3.226 1.9-4.15 3.472l-0.020 0.038z"></path>
</symbol>
<symbol id="icon-station" viewBox="0 0 20 20">
<title>station</title>
<path d="M9 11.73c-0.602-0.352-1-0.996-1-1.732 0-1.105 0.895-2 2-2s2 0.895 2 2c0 0.736-0.398 1.38-0.991 1.727l-0.009 0.005v8.27h-2v-8.27zM14.24 14.24l-1.41-1.41c0.733-0.724 1.188-1.729 1.188-2.84 0-2.204-1.786-3.99-3.99-3.99-0.010 0-0.019 0-0.029 0h0.001c-0.001 0-0.002 0-0.003 0-2.209 0-4 1.791-4 4 0 1.105 0.448 2.106 1.173 2.83l0 0-1.41 1.41c-1.084-1.086-1.755-2.585-1.755-4.24 0-3.314 2.686-6 6-6s6 2.686 6 6c0 1.656-0.671 3.155-1.755 4.24l0-0zM17.070 17.070l-1.41-1.41c1.449-1.448 2.345-3.449 2.345-5.659 0-4.418-3.582-8-8-8s-8 3.582-8 8c0 2.21 0.896 4.211 2.345 5.659l0 0-1.42 1.41c-1.81-1.81-2.93-4.31-2.93-7.072 0-5.523 4.477-10 10-10s10 4.477 10 10c0 2.762-1.12 5.262-2.93 7.072l-0 0z"></path>
</symbol>
</defs>
</svg>
